<svg width="32" height="32" viewBox="0 0 32 32" fill="none" xmlns="http://www.w3.org/2000/svg">
<path d="M3.1242 3.1242C7.2898 -1.0414 24.7102 -1.0414 28.8758 3.1242C33.0414 7.29 33.0414 24.7102 28.8758 28.8758C24.7102 33.0414 7.2898 33.0414 3.1242 28.8758C-1.0414 24.7102 -1.0414 7.2898 3.1242 3.1242Z" fill="#F9CE49"/>
<path d="M22.384 16.216L24.928 24.416C24.968 24.56 24.928 24.712 24.832 24.808C24.76 24.888 24.656 24.928 24.552 24.928C24.512 24.928 24.472 24.928 24.432 24.912L16.232 22.368C16.168 22.352 16.112 22.32 16.064 22.272L6.68002 12.896C5.43202 11.648 5.43202 9.61599 6.68002 8.36799L8.37602 6.67199C9.58402 5.46399 11.696 5.46399 12.904 6.67199L22.288 16.048C22.328 16.096 22.368 16.152 22.384 16.216Z" fill="#333333"/>
<path d="M21.608 23.208L16.832 21.728L17.232 20.024L19.096 19.336C19.208 19.296 19.296 19.208 19.336 19.104L20.024 17.24L21.728 16.84L23.216 21.6C22.512 21.952 21.952 22.512 21.608 23.208Z" fill="#FEFBE8"/>
<path d="M19.792 16.464L20.704 16.248L15.008 10.552C14.752 10.672 14.504 10.8 14.264 10.936L19.792 16.464Z" fill="#F9CE49"/>
<path d="M14.816 9.76798C14.584 9.56798 14.352 9.37598 14.096 9.20798C14 9.41598 13.936 9.63998 13.936 9.88798C13.936 9.99198 13.952 10.088 13.976 10.184C14.248 10.032 14.528 9.89598 14.816 9.76798Z" fill="#F9CE49"/>
<path d="M9.76798 7.13598C9.84798 6.96798 9.94398 6.79998 10.04 6.63998C9.65598 6.73598 9.29598 6.91198 9.00798 7.18398C9.25598 7.15998 9.51198 7.13598 9.76798 7.13598Z" fill="#F9CE49"/>
<path d="M9.43998 7.95998C8.99998 7.98398 8.56798 8.04798 8.15198 8.14398C8.04798 8.55998 7.99198 8.99198 7.95998 9.43198C8.35198 9.31198 8.75998 9.22398 9.18398 9.17598C9.23198 8.75998 9.31198 8.35198 9.43998 7.95998Z" fill="#F9CE49"/>
<path d="M7.14398 9.75998C7.15198 9.50398 7.16798 9.24798 7.19198 8.99198C6.91198 9.30398 6.71998 9.66398 6.62398 10.048C6.79198 9.94398 6.96798 9.84798 7.14398 9.75998Z" fill="#F9CE49"/>
<path d="M6.58398 11.04C6.64798 11.44 6.82398 11.824 7.10398 12.16C7.19998 12.08 7.28798 11.984 7.39198 11.912C7.29598 11.496 7.21598 11.072 7.17598 10.64C6.96798 10.76 6.77598 10.896 6.58398 11.04Z" fill="#F9CE49"/>
<path d="M9.14398 9.99198C8.73598 10.048 8.33598 10.152 7.95998 10.288C7.98398 10.704 8.03198 11.112 8.11998 11.512C8.47998 11.352 8.86398 11.24 9.27198 11.184C9.19198 10.8 9.15198 10.4 9.14398 9.99198Z" fill="#F9CE49"/>
<path d="M9.49598 11.968C9.07998 12.016 8.69598 12.12 8.33598 12.296C8.46398 12.68 8.62398 13.048 8.80798 13.4C9.13598 13.232 9.49598 13.128 9.88798 13.128C9.93598 13.128 9.99198 13.144 10.04 13.144C9.82398 12.776 9.63998 12.384 9.49598 11.968Z" fill="#F9CE49"/>
<path d="M9.20798 14.088C9.37598 14.344 9.56798 14.576 9.76798 14.808C9.89598 14.52 10.04 14.24 10.184 13.968C10.088 13.944 9.99198 13.928 9.88798 13.928C9.63998 13.928 9.41598 13.992 9.20798 14.088Z" fill="#F9CE49"/>
<path d="M10.344 11.984C10.48 12.32 10.664 12.632 10.864 12.936C11.032 12.712 11.2 12.504 11.376 12.304C11.048 12.152 10.712 12.032 10.344 11.984Z" fill="#F9CE49"/>
<path d="M9.94398 9.93598C9.94398 10.352 9.99998 10.752 10.088 11.144C10.552 11.168 11 11.256 11.424 11.408C11.264 10.992 11.176 10.544 11.152 10.08C10.76 9.99198 10.36 9.93598 9.94398 9.93598Z" fill="#F9CE49"/>
<path d="M9.99198 9.13598C10.4 9.14398 10.8 9.18398 11.192 9.26398C11.248 8.86398 11.352 8.47198 11.512 8.11198C11.12 8.02398 10.704 7.97598 10.288 7.95198C10.144 8.32798 10.048 8.72798 9.99198 9.13598Z" fill="#F9CE49"/>
<path d="M11.032 6.59198C10.896 6.77598 10.76 6.96798 10.648 7.16798C11.08 7.20798 11.504 7.28798 11.92 7.39198C11.992 7.28798 12.08 7.19998 12.168 7.09598C11.84 6.82398 11.448 6.65598 11.032 6.59198Z" fill="#F9CE49"/>
<path d="M13.408 8.80798C13.056 8.62398 12.688 8.46398 12.304 8.33598C12.136 8.68798 12.024 9.07998 11.976 9.49598C12.392 9.63198 12.784 9.81598 13.152 10.04C13.152 9.99198 13.136 9.94398 13.136 9.88798C13.136 9.49598 13.24 9.13598 13.408 8.80798Z" fill="#F9CE49"/>
<path d="M12.936 10.864C12.64 10.664 12.32 10.48 11.984 10.344C12.032 10.712 12.152 11.048 12.296 11.376C12.504 11.192 12.72 11.024 12.936 10.864Z" fill="#F9CE49"/>
<path d="M13.584 11.36C13.144 11.672 12.728 12.008 12.352 12.392L18.608 18.656L18.648 18.64L19.248 17.024L13.584 11.36Z" fill="#F9CE49"/>
</svg>
